<svg width="25" height="24" viewBox="0 0 25 24" fill="none" xmlns="http://www.w3.org/2000/svg">
<path d="M11.2679 14.5V17.5C11.2679 17.914 10.9319 18.25 10.5179 18.25C10.1039 18.25 9.76794 17.914 9.76794 17.5V14.5C9.76794 14.086 10.1039 13.75 10.5179 13.75C10.9319 13.75 11.2679 14.086 11.2679 14.5ZM14.5179 13.75C14.1039 13.75 13.7679 14.086 13.7679 14.5V17.5C13.7679 17.914 14.1039 18.25 14.5179 18.25C14.9319 18.25 15.2679 17.914 15.2679 17.5V14.5C15.2679 14.086 14.9319 13.75 14.5179 13.75ZM20.7271 11.448L20.035 18.373C19.808 20.645 18.588 21.75 16.304 21.75H8.73401C6.45001 21.75 5.22905 20.646 5.00305 18.373L4.31299 11.469C3.39199 11.024 2.75098 10.089 2.75098 8.99996C2.75098 7.48296 3.98398 6.24996 5.50098 6.24996H7.65796L9.85901 2.61196C10.073 2.25796 10.532 2.14395 10.889 2.35895C11.243 2.57295 11.357 3.03496 11.142 3.38896L9.41101 6.25096H15.562L13.8571 3.38495C13.6451 3.02895 13.762 2.56895 14.118 2.35695C14.474 2.14395 14.934 2.26295 15.146 2.61795L17.308 6.25196H19.5C21.017 6.25196 22.25 7.48495 22.25 9.00196C22.25 10.073 21.6261 10.995 20.7271 11.448ZM4.25 8.99996C4.25 9.68896 4.811 10.25 5.5 10.25H19.5C20.189 10.25 20.75 9.68896 20.75 8.99996C20.75 8.31096 20.189 7.74996 19.5 7.74996H5.5C4.811 7.74996 4.25 8.31096 4.25 8.99996ZM19.1899 11.75H5.84705L6.49402 18.224C6.62602 19.538 7.02103 20.25 8.73303 20.25H16.303C18.006 20.25 18.413 19.507 18.542 18.224L19.1899 11.75Z" fill="white"/>
</svg>
