<svg xmlns="http://www.w3.org/2000/svg" width="253" height="199" viewBox="0 0 253 199" fill="none">
  <path d="M131.54 159.779C167.537 159.779 196.718 130.598 196.718 94.6008C196.718 58.6039 167.537 29.4226 131.54 29.4226C95.5433 29.4226 66.3621 58.6039 66.3621 94.6008C66.3621 130.598 95.5433 159.779 131.54 159.779Z" fill="#FF511B" fill-opacity="0.11"/>
  <path d="M223.506 86.968V79.9293C223.506 78.5871 222.973 77.2998 222.024 76.3507C221.075 75.4016 219.787 74.8684 218.445 74.8684H196.695C196.031 74.8684 195.373 74.7375 194.759 74.4832C194.145 74.2289 193.587 73.8561 193.117 73.3862C192.647 72.9162 192.274 72.3583 192.02 71.7443C191.765 71.1303 191.634 70.4722 191.634 69.8076V62.7689C191.634 61.4267 192.168 60.1394 193.117 59.1903C194.066 58.2412 195.353 57.708 196.695 57.708H205.033C206.375 57.708 207.662 57.1748 208.611 56.2257C209.56 55.2766 210.094 53.9894 210.094 52.6472V45.6085C210.094 44.2662 209.56 42.979 208.611 42.0299C207.662 41.0808 206.375 40.5476 205.033 40.5476H55.8142C54.472 40.5476 53.1847 41.0808 52.2356 42.0299C51.2865 42.979 50.7533 44.2662 50.7533 45.6085V52.6472C50.7533 53.9894 51.2865 55.2766 52.2356 56.2257C53.1847 57.1748 54.472 57.708 55.8142 57.708C57.1564 57.708 58.4437 58.2412 59.3927 59.1903C60.3418 60.1394 60.875 61.4267 60.875 62.7689V69.8076C60.875 71.1498 60.3418 72.4371 59.3927 73.3862C58.4437 74.3352 57.1564 74.8684 55.8142 74.8684H32.3567C31.0145 74.8684 29.7273 75.4016 28.7782 76.3507C27.8291 77.2998 27.2959 78.5871 27.2959 79.9293V86.968C27.2959 88.3102 27.8291 89.5975 28.7782 90.5466C29.7273 91.4956 31.0145 92.0288 32.3567 92.0288H55.5829C56.2475 92.0288 56.9056 92.1597 57.5196 92.4141C58.1336 92.6684 58.6915 93.0412 59.1614 93.5111C59.6314 93.9811 60.0042 94.539 60.2585 95.153C60.5128 95.767 60.6437 96.4251 60.6437 97.0897V104.128C60.7677 110.569 46.7178 109.189 43.9227 109.189H43.9042C42.562 109.189 41.2747 109.723 40.3256 110.672C39.3765 111.621 38.8433 112.908 38.8433 114.25V121.289C38.8433 122.631 39.3765 123.918 40.3256 124.867C41.2747 125.816 42.562 126.35 43.9042 126.35H56.6754C58.0176 126.35 59.3048 126.883 60.2539 127.832C61.203 128.781 61.7362 130.068 61.7362 131.411V138.449C61.7362 139.792 61.203 141.079 60.2539 142.028C59.3048 142.977 58.0176 143.51 56.6754 143.51H42.3281C40.9859 143.51 39.6987 144.043 38.7496 144.992C37.8005 145.942 37.2673 147.229 37.2673 148.571V155.61C37.2673 156.952 37.8005 158.239 38.7496 159.188C39.6987 160.137 40.9859 160.671 42.3281 160.671H203.863C205.205 160.671 206.493 160.137 207.442 159.188C208.391 158.239 208.924 156.952 208.924 155.61V148.571C208.924 147.229 208.391 145.942 207.442 144.992C206.493 144.043 205.205 143.51 203.863 143.51H195.588C194.246 143.51 192.959 142.977 192.01 142.028C191.061 141.079 190.528 139.792 190.528 138.449V131.411C190.528 130.068 191.061 128.781 192.01 127.832C192.959 126.883 194.246 126.35 195.588 126.35H209.822C211.164 126.35 212.451 125.816 213.4 124.867C214.349 123.918 214.882 122.631 214.882 121.289V114.25C214.882 112.908 214.349 111.621 213.4 110.672C212.451 109.723 211.164 109.189 209.822 109.189H202.796C201.454 109.189 200.167 108.656 199.218 107.707C198.269 106.758 197.735 105.471 197.735 104.128V97.0897C197.735 96.4251 197.866 95.767 198.121 95.153C198.375 94.539 198.748 93.9811 199.218 93.5111C199.688 93.0412 200.245 92.6684 200.86 92.4141C201.474 92.1597 202.132 92.0288 202.796 92.0288H218.445C219.787 92.0288 221.075 91.4956 222.024 90.5466C222.973 89.5975 223.506 88.3102 223.506 86.968Z" fill="#FA6C02" fill-opacity="0.16"/>
  <path d="M202.516 122.161C205.48 122.161 207.882 119.758 207.882 116.794C207.882 113.83 205.48 111.428 202.516 111.428C199.552 111.428 197.149 113.83 197.149 116.794C197.149 119.758 199.552 122.161 202.516 122.161Z" fill="#FE5823"/>
  <path d="M188.354 123.45C189.891 123.45 191.137 122.204 191.137 120.667C191.137 119.13 189.891 117.885 188.354 117.885C186.817 117.885 185.572 119.13 185.572 120.667C185.572 122.204 186.817 123.45 188.354 123.45Z" fill="#FE5823"/>
  <path d="M195.42 107.638C197.615 107.638 199.395 105.858 199.395 103.663C199.395 101.467 197.615 99.6877 195.42 99.6877C193.224 99.6877 191.444 101.467 191.444 103.663C191.444 105.858 193.224 107.638 195.42 107.638Z" fill="#FE5823"/>
  <path d="M80.4007 157.84C83.9271 157.84 86.7858 154.982 86.7858 151.455C86.7858 147.929 83.9271 145.07 80.4007 145.07C76.8743 145.07 74.0156 147.929 74.0156 151.455C74.0156 154.982 76.8743 157.84 80.4007 157.84Z" fill="#FE5823"/>
  <path d="M68.1994 150.234C70.0363 150.234 71.5253 148.745 71.5253 146.908C71.5253 145.071 70.0363 143.582 68.1994 143.582C66.3626 143.582 64.8735 145.071 64.8735 146.908C64.8735 148.745 66.3626 150.234 68.1994 150.234Z" fill="#FE5823"/>
  <path d="M71.2542 137.521C72.3137 137.521 73.1726 136.662 73.1726 135.602C73.1726 134.543 72.3137 133.684 71.2542 133.684C70.1946 133.684 69.3357 134.543 69.3357 135.602C69.3357 136.662 70.1946 137.521 71.2542 137.521Z" fill="#FE5823"/>
  <path d="M81.8749 141.558C84.4148 141.558 86.4739 139.499 86.4739 136.959C86.4739 134.419 84.4148 132.36 81.8749 132.36C79.3349 132.36 77.2759 134.419 77.2759 136.959C77.2759 139.499 79.3349 141.558 81.8749 141.558Z" fill="#FE5823"/>
  <path d="M85.077 61.9882C88.6034 61.9882 91.4621 59.1295 91.4621 55.6031C91.4621 52.0767 88.6034 49.218 85.077 49.218C81.5506 49.218 78.6919 52.0767 78.6919 55.6031C78.6919 59.1295 81.5506 61.9882 85.077 61.9882Z" fill="#FE5823"/>
  <path d="M85.3357 45.9103C87.1725 45.9103 88.6615 44.4213 88.6615 42.5844C88.6615 40.7476 87.1725 39.2585 85.3357 39.2585C83.4988 39.2585 82.0098 40.7476 82.0098 42.5844C82.0098 44.4213 83.4988 45.9103 85.3357 45.9103Z" fill="#FE5823"/>
  <path d="M107.488 47.4063C109.078 47.4063 110.366 46.1175 110.366 44.5277C110.366 42.9379 109.078 41.6492 107.488 41.6492C105.898 41.6492 104.609 42.9379 104.609 44.5277C104.609 46.1175 105.898 47.4063 107.488 47.4063Z" fill="#FE5823"/>
  <path d="M97.0161 43.6489C98.0756 43.6489 98.9346 42.79 98.9346 41.7305C98.9346 40.6709 98.0756 39.812 97.0161 39.812C95.9566 39.812 95.0977 40.6709 95.0977 41.7305C95.0977 42.79 95.9566 43.6489 97.0161 43.6489Z" fill="#FE5823"/>
  <path d="M99.2445 56.8015C101.784 56.8015 103.844 54.7425 103.844 52.2025C103.844 49.6626 101.784 47.6035 99.2445 47.6035C96.7045 47.6035 94.6455 49.6626 94.6455 52.2025C94.6455 54.7425 96.7045 56.8015 99.2445 56.8015Z" fill="#FE5823"/>
  <path d="M187.077 90.6551H78.9347L75.4084 81.7156H187.077C187.216 81.7156 187.354 81.7429 187.482 81.7961C187.611 81.8493 187.727 81.9272 187.825 82.0254C187.924 82.1237 188.002 82.2403 188.055 82.3686C188.108 82.497 188.135 82.6345 188.135 82.7735V89.5973C188.135 89.7362 188.108 89.8738 188.055 90.0021C188.002 90.1305 187.924 90.2471 187.825 90.3453C187.727 90.4435 187.611 90.5215 187.482 90.5746C187.354 90.6278 187.216 90.6551 187.077 90.6551Z" fill="black"/>
  <path d="M171.323 137.625H97.7877C97.4289 137.625 97.0786 137.515 96.7836 137.311C96.4887 137.106 96.2631 136.817 96.137 136.481L78.9351 90.655H183.312L173.043 136.249C172.955 136.639 172.737 136.988 172.424 137.238C172.111 137.488 171.723 137.625 171.323 137.625Z" fill="#FF511B" fill-opacity="0.53"/>
  <path d="M178.023 114.141C170.5 114.623 162.978 114.876 155.455 115.047C151.694 115.155 147.932 115.179 144.171 115.242L132.887 115.306C125.364 115.313 117.841 115.228 110.318 115.051C102.796 114.88 95.273 114.626 87.7502 114.141C95.273 113.655 102.796 113.402 110.318 113.231C117.841 113.062 125.364 112.977 132.887 112.976L144.171 113.04C147.932 113.103 151.694 113.127 155.455 113.234C162.978 113.406 170.5 113.658 178.023 114.141Z" fill="black"/>
  <path d="M163.308 90.655C162.88 94.7539 162.225 98.8018 161.502 102.834C160.769 106.865 159.952 110.876 159.05 114.868C158.152 118.861 157.172 122.836 156.109 126.792C155.573 128.769 155.017 130.741 154.424 132.706C154.117 133.685 153.825 134.668 153.507 135.645L153.261 136.388C153.164 136.66 153.007 136.907 152.802 137.11C152.609 137.301 152.375 137.447 152.119 137.536C151.862 137.625 151.589 137.655 151.319 137.625C151.563 137.596 151.798 137.515 152.007 137.387C152.216 137.258 152.395 137.087 152.532 136.883C152.66 136.695 152.744 136.481 152.778 136.257L152.876 135.503C153.007 134.484 153.164 133.471 153.307 132.454C153.614 130.425 153.957 128.405 154.32 126.389C155.053 122.359 155.871 118.348 156.775 114.356C157.676 110.363 158.657 106.389 159.719 102.433C160.795 98.4797 161.938 94.5418 163.308 90.655Z" fill="black"/>
  <path d="M121.286 137.625C121.005 137.655 120.721 137.62 120.457 137.521C120.192 137.423 119.954 137.264 119.761 137.058C119.572 136.841 119.42 136.593 119.312 136.326L118.963 135.605C118.499 134.642 118.061 133.67 117.609 132.703C116.724 130.761 115.874 128.807 115.043 126.845C113.386 122.92 111.812 118.964 110.319 114.978C108.821 110.993 107.402 106.978 106.063 102.934C104.736 98.8849 103.475 94.8111 102.434 90.655C104.384 94.4698 106.116 98.367 107.78 102.289C109.436 106.215 111.01 110.171 112.501 114.158C113.996 118.144 115.413 122.159 116.753 126.203C117.418 128.227 118.065 130.258 118.675 132.302C118.971 133.328 119.281 134.348 119.565 135.379L119.778 136.151C119.826 136.394 119.914 136.627 120.037 136.841C120.173 137.057 120.356 137.24 120.572 137.376C120.788 137.511 121.032 137.596 121.286 137.625Z" fill="black"/>
  <path d="M116.047 173.659C120.07 173.659 123.332 170.398 123.332 166.374C123.332 162.351 120.07 159.089 116.047 159.089C112.024 159.089 108.762 162.351 108.762 166.374C108.762 170.398 112.024 173.659 116.047 173.659Z" fill="black"/>
  <path d="M116.047 169.736C117.904 169.736 119.409 168.231 119.409 166.374C119.409 164.517 117.904 163.012 116.047 163.012C114.19 163.012 112.685 164.517 112.685 166.374C112.685 168.231 114.19 169.736 116.047 169.736Z" fill="#E2CCBB"/>
  <path d="M158.07 173.659C162.093 173.659 165.355 170.398 165.355 166.374C165.355 162.351 162.093 159.089 158.07 159.089C154.046 159.089 150.785 162.351 150.785 166.374C150.785 170.398 154.046 173.659 158.07 173.659Z" fill="black"/>
  <path d="M158.069 169.736C159.926 169.736 161.432 168.231 161.432 166.374C161.432 164.517 159.926 163.012 158.069 163.012C156.212 163.012 154.707 164.517 154.707 166.374C154.707 168.231 156.212 169.736 158.069 169.736Z" fill="#E2CCBB"/>
  <path d="M133.532 90.655C134.247 94.5405 134.73 98.4397 135.144 102.343C135.548 106.247 135.865 110.156 136.095 114.07C136.33 117.984 136.48 121.904 136.546 125.828C136.6 129.752 136.582 133.682 136.331 137.625C135.613 133.739 135.129 129.84 134.716 125.937C134.312 122.033 133.996 118.124 133.768 114.209C133.536 110.295 133.386 106.376 133.32 102.452C133.267 98.5269 133.284 94.5978 133.532 90.655Z" fill="black"/>
  <path d="M170.396 155.392H104.495C104.259 155.392 104.029 155.32 103.834 155.186C103.64 155.053 103.491 154.863 103.406 154.643L65.2392 55.1519H45.0229C44.7137 55.1519 44.4171 55.029 44.1985 54.8103C43.9798 54.5917 43.8569 54.2951 43.8569 53.9858C43.8569 53.6766 43.9798 53.38 44.1985 53.1613C44.4171 52.9427 44.7137 52.8198 45.0229 52.8198H66.0407C66.2766 52.8198 66.5069 52.8914 66.7013 53.025C66.8957 53.1587 67.0449 53.3481 67.1294 53.5683L105.296 153.06H170.396C170.705 153.06 171.001 153.182 171.22 153.401C171.439 153.62 171.562 153.916 171.562 154.226C171.562 154.535 171.439 154.831 171.22 155.05C171.001 155.269 170.705 155.392 170.396 155.392Z" fill="black"/>
  <path d="M55.1626 50.6238H41.3259C40.8966 50.6238 40.5486 50.9718 40.5486 51.4011V56.9825C40.5486 57.4118 40.8966 57.7598 41.3259 57.7598H55.1626C55.592 57.7598 55.94 57.4118 55.94 56.9825V51.4011C55.94 50.9718 55.592 50.6238 55.1626 50.6238Z" fill="black"/>
  <path d="M132.593 70.8549C133.173 70.8549 133.643 70.3851 133.643 69.8055C133.643 69.2259 133.173 68.7561 132.593 68.7561C132.014 68.7561 131.544 69.2259 131.544 69.8055C131.544 70.3851 132.014 70.8549 132.593 70.8549Z" fill="#F9AE2B"/>
</svg>