<svg width="26" height="27" viewBox="0 0 26 27" fill="none"
  xmlns="http://www.w3.org/2000/svg">
  <path d="M21 26.9999H15.3333V19.9999C15.3333 18.7133 14.2867 17.6666 13 17.6666C11.7133 17.6666 10.6667 18.7133 10.6667 19.9999V26.9999H5C1.776 26.9999 0 25.2239 0 21.9999V13.5333C0 10.7026 0.781323 9.91193 2.05599 8.8546L10.216 2.01329C11.828 0.659958 14.172 0.659958 15.784 2.01329L23.944 8.8546C25.2187 9.91193 26 10.704 26 13.5333V21.9999C26 25.2239 24.224 26.9999 21 26.9999ZM17.3333 24.9999H21C23.1027 24.9999 24 24.1026 24 21.9999V13.5333C24 11.4986 23.664 11.22 22.668 10.3933L14.5 3.54535C13.6307 2.81735 12.3693 2.81735 11.5 3.54535L3.33203 10.3933C2.33603 11.22 2 11.4986 2 13.5333V21.9999C2 24.1026 2.89733 24.9999 5 24.9999H8.66667V19.9999C8.66667 17.6106 10.6107 15.6666 13 15.6666C15.3893 15.6666 17.3333 17.6106 17.3333 19.9999V24.9999Z" fill="#0A0A0A"/>
</svg>
