<svg width="24" height="26" viewBox="0 0 24 26" fill="none" xmlns="http://www.w3.org/2000/svg">
<path d="M18.3333 26H5C1.776 26 0 24.224 0 21V5C0 1.776 1.776 0 5 0H18.3333C21.5573 0 23.3333 1.776 23.3333 5V21C23.3333 24.224 21.5573 26 18.3333 26ZM5 2C2.89733 2 2 2.89733 2 5V21C2 23.1027 2.89733 24 5 24H18.3333C20.436 24 21.3333 23.1027 21.3333 21V5C21.3333 2.89733 20.436 2 18.3333 2H5ZM18 13C18 12.448 17.552 12 17 12H6.33333C5.78133 12 5.33333 12.448 5.33333 13C5.33333 13.552 5.78133 14 6.33333 14H17C17.552 14 18 13.552 18 13ZM14 18.3333C14 17.7813 13.552 17.3333 13 17.3333H6.33333C5.78133 17.3333 5.33333 17.7813 5.33333 18.3333C5.33333 18.8853 5.78133 19.3333 6.33333 19.3333H13C13.552 19.3333 14 18.8853 14 18.3333ZM18 7.66667C18 7.11467 17.552 6.66667 17 6.66667H6.33333C5.78133 6.66667 5.33333 7.11467 5.33333 7.66667C5.33333 8.21867 5.78133 8.66667 6.33333 8.66667H17C17.552 8.66667 18 8.21867 18 7.66667Z" fill="#0A0A0A"/>
</svg>
