<svg width="27" height="26" viewBox="0 0 27 26" fill="none" xmlns="http://www.w3.org/2000/svg">
<path d="M11.6899 16.3334V20.3334C11.6899 20.8854 11.2419 21.3334 10.6899 21.3334C10.1379 21.3334 9.68994 20.8854 9.68994 20.3334V16.3334C9.68994 15.7814 10.1379 15.3334 10.6899 15.3334C11.2419 15.3334 11.6899 15.7814 11.6899 16.3334ZM16.0233 15.3334C15.4713 15.3334 15.0233 15.7814 15.0233 16.3334V20.3334C15.0233 20.8854 15.4713 21.3334 16.0233 21.3334C16.5753 21.3334 17.0233 20.8854 17.0233 20.3334V16.3334C17.0233 15.7814 16.5753 15.3334 16.0233 15.3334ZM24.3021 12.2641L23.3794 21.4974C23.0767 24.5268 21.45 26.0001 18.4046 26.0001H8.31136C5.26603 26.0001 3.63808 24.5281 3.33675 21.4974L2.41667 12.2921C1.18867 11.6988 0.333984 10.4521 0.333984 9.0001C0.333984 6.97744 1.97798 5.33344 4.00065 5.33344H6.87663L9.81136 0.48277C10.0967 0.0107701 10.7087 -0.141238 11.1847 0.145429C11.6567 0.430762 11.8086 1.04678 11.522 1.51878L9.21403 5.33478H17.4154L15.1421 1.51343C14.8594 1.03876 15.0154 0.42543 15.4901 0.142764C15.9647 -0.141236 16.578 0.0174324 16.8607 0.490766L19.7433 5.3361H22.666C24.6887 5.3361 26.3327 6.9801 26.3327 9.00277C26.3327 10.4308 25.5007 11.6601 24.3021 12.2641ZM2.33268 9.0001C2.33268 9.91877 3.08068 10.6668 3.99935 10.6668H22.666C23.5847 10.6668 24.3327 9.91877 24.3327 9.0001C24.3327 8.08144 23.5847 7.33344 22.666 7.33344H3.99935C3.08068 7.33344 2.33268 8.08144 2.33268 9.0001ZM22.2526 12.6668H4.46208L5.32471 21.2988C5.50071 23.0508 6.02739 24.0001 8.31006 24.0001H18.4033C20.674 24.0001 21.2167 23.0094 21.3887 21.2988L22.2526 12.6668Z" fill="#0A0A0A"/>
</svg>
