<svg width="22" height="26" viewBox="0 0 22 26" fill="none" xmlns="http://www.w3.org/2000/svg">
<path d="M11.0124 11.3333C7.88704 11.3333 5.3457 8.79067 5.3457 5.66667C5.3457 2.54267 7.88704 0 11.0124 0C14.1377 0 16.679 2.54267 16.679 5.66667C16.679 8.79067 14.1377 11.3333 11.0124 11.3333ZM11.0124 2C8.9897 2 7.3457 3.644 7.3457 5.66667C7.3457 7.68933 8.9897 9.33333 11.0124 9.33333C13.035 9.33333 14.679 7.68933 14.679 5.66667C14.679 3.644 13.0337 2 11.0124 2ZM21.3337 25V21.0254C21.3337 17.4774 19.3257 13.3333 13.667 13.3333H8.33366C2.67499 13.3333 0.666992 17.4761 0.666992 21.0254V25C0.666992 25.552 1.11499 26 1.66699 26C2.21899 26 2.66699 25.552 2.66699 25V21.0254C2.66699 19.6907 3.07633 15.3333 8.33366 15.3333H13.667C18.9243 15.3333 19.3337 19.6894 19.3337 21.0254V25C19.3337 25.552 19.7817 26 20.3337 26C20.8857 26 21.3337 25.552 21.3337 25Z" fill="#0A0A0A"/>
</svg>
