<svg width="38" height="16" viewBox="0 0 38 16" fill="none" xmlns="http://www.w3.org/2000/svg">
<path d="M16 7.98818C16 7.00738 15.8109 6.06204 15.4919 5.19941C15.4092 8.05908 12.4904 10.2807 10.7888 11.7459H15.0665C15.6573 10.6352 16 9.34712 16 7.98818ZM12.904 1.68981C11.545 0.638111 9.85524 0 8 0C3.5805 0 0 3.5805 0 8C0 12.4195 3.5805 16 8 16C10.0207 16 11.8641 15.2437 13.2703 14.003H7.48006L7.46824 12.3013C10.9542 9.2644 13.0931 7.22009 13.0931 5.23486C13.0931 4.50222 12.8095 3.56869 11.545 3.56869C10.5406 3.56869 9.58346 4.14771 9.76071 6.57016H7.72821C7.22009 3.76957 8.74446 1.53619 11.6514 1.53619C12.1004 1.53619 12.5258 1.58346 12.904 1.68981Z" fill="#0A0A0A"/>
<path d="M23.4206 5.51845H25.3113C25.3704 4.07679 24.8859 1.79614 21.7663 1.79614C19.4738 1.79614 17.8076 3.1669 17.8076 6.03839C17.8076 6.42834 17.8194 8.43721 17.8194 9.67797C17.8194 12.7858 19.9701 13.4594 21.7781 13.4594C22.8652 13.4594 24.425 13.2112 25.1577 12.4195V7.46822H21.6008V9.26438H23.1843V11.4505C21.9908 11.8523 19.8047 12.0177 19.8047 9.26438V6.02657C19.8047 4.10042 20.6909 3.43868 21.6835 3.43868C22.6998 3.4505 23.4206 3.97044 23.4206 5.51845ZM37.4945 10.3279C37.5772 5.89659 32.4959 7.37369 32.5432 4.89216C32.555 4.01771 33.1222 3.4505 34.0439 3.4505C35.0247 3.4505 35.6156 4.02952 35.592 5.5539H37.459C37.5063 4.18314 37.1872 1.83159 34.1149 1.83159C32.2123 1.83159 30.6407 2.76512 30.6052 4.8567C30.5225 9.11076 35.6392 7.71638 35.5565 10.2924C35.5211 11.3441 34.7648 11.8168 33.9021 11.8168C32.8977 11.8168 32.0942 11.2378 32.2478 9.4889H30.3689C30.1562 11.805 31.1725 13.4475 33.8785 13.4475C36.1592 13.4475 37.459 12.1831 37.4945 10.3279ZM28.9509 13.3057H27.0484V1.98521H28.9509V13.3057ZM28.9509 13.3057H27.0484V1.98521H28.9509V13.3057Z" fill="#0A0A0A"/>
</svg>
