<svg width="24" height="24" viewBox="0 0 24 24" fill="none" xmlns="http://www.w3.org/2000/svg">
<path fill-rule="evenodd" clip-rule="evenodd" d="M21.3121 10.2085C16.369 5.524 8.75784 5.27729 3.53463 9.46946L2.91035 8.69163L3.53463 9.46946C3.24487 9.70204 2.96235 9.94835 2.68787 10.2085C2.287 10.5884 1.65407 10.5714 1.27417 10.1705C0.894267 9.76963 0.911266 9.13669 1.31213 8.75679C1.62646 8.45891 1.95033 8.17654 2.28274 7.90972L2.28277 7.9097C8.27925 3.0969 17.013 3.37887 22.6879 8.75679C23.0887 9.13669 23.1057 9.76962 22.7258 10.1705C22.3459 10.5714 21.713 10.5884 21.3121 10.2085Z" fill="black"/>
<path fill-rule="evenodd" clip-rule="evenodd" d="M4.29289 12.1924C8.54942 7.93587 15.4506 7.93587 19.7071 12.1924C20.0976 12.5829 20.0976 13.2161 19.7071 13.6066C19.3166 13.9971 18.6834 13.9971 18.2929 13.6066C14.8174 10.1311 9.18258 10.1311 5.70711 13.6066C5.31658 13.9971 4.68342 13.9971 4.29289 13.6066C3.90237 13.2161 3.90237 12.5829 4.29289 12.1924Z" fill="black"/>
<path fill-rule="evenodd" clip-rule="evenodd" d="M7.29289 15.4498C9.89257 12.8501 14.1074 12.8501 16.7071 15.4498C17.0976 15.8403 17.0976 16.4734 16.7071 16.864C16.3166 17.2545 15.6834 17.2545 15.2929 16.864C13.4743 15.0453 10.5257 15.0453 8.70711 16.864C8.31658 17.2545 7.68342 17.2545 7.29289 16.864C6.90237 16.4734 6.90237 15.8403 7.29289 15.4498Z" fill="black"/>
<path fill-rule="evenodd" clip-rule="evenodd" d="M12 20C12.6904 20 13.25 19.4404 13.25 18.75C13.25 18.0597 12.6904 17.5 12 17.5C11.3097 17.5 10.75 18.0597 10.75 18.75C10.75 19.4404 11.3097 20 12 20Z" fill="black"/>
</svg>
