<svg width="20" height="13" viewBox="0 0 20 13" fill="none" xmlns="http://www.w3.org/2000/svg">
<path d="M19.3307 6.66641C19.3307 7.21841 18.8827 7.66641 18.3307 7.66641H4.07893L7.70556 11.293C8.09622 11.6837 8.09622 12.3171 7.70556 12.7078C7.51089 12.9024 7.25485 13.001 6.99885 13.001C6.74285 13.001 6.48681 12.9038 6.29215 12.7078L0.958812 7.37442C0.866812 7.28242 0.793659 7.17189 0.742992 7.04923C0.641659 6.80523 0.641659 6.52923 0.742992 6.28523C0.793659 6.16256 0.866812 6.05171 0.958812 5.95971L6.29215 0.626374C6.68281 0.235707 7.31619 0.235707 7.70686 0.626374C8.09753 1.01704 8.09753 1.65042 7.70686 2.04109L4.08023 5.66772H18.3307C18.8827 5.66638 19.3307 6.11441 19.3307 6.66641Z" fill="black"/>
</svg>
