<svg width="17" height="16" viewBox="0 0 17 16" fill="none" xmlns="http://www.w3.org/2000/svg">
<path d="M8.33299 1.44147C10.4691 1.44147 10.7221 1.4496 11.5657 1.48809C12.3457 1.52369 12.7692 1.65401 13.0512 1.76354C13.4246 1.90867 13.6911 2.08205 13.971 2.36198C14.251 2.64191 14.4243 2.90844 14.5694 3.28183C14.679 3.56376 14.8093 3.98735 14.8449 4.76731C14.8834 5.61091 14.8915 5.86391 14.8915 8.00002C14.8915 10.1361 14.8834 10.3891 14.8449 11.2327C14.8093 12.0127 14.679 12.4363 14.5694 12.7182C14.4243 13.0916 14.251 13.3581 13.971 13.638C13.6911 13.918 13.4246 14.0914 13.0512 14.2365C12.7692 14.346 12.3457 14.4763 11.5657 14.5119C10.7222 14.5504 10.4692 14.5586 8.33299 14.5586C6.19676 14.5586 5.94376 14.5504 5.10032 14.5119C4.32033 14.4763 3.89674 14.346 3.61484 14.2365C3.24142 14.0914 2.97489 13.918 2.69496 13.638C2.41503 13.3581 2.24164 13.0916 2.09655 12.7182C1.98699 12.4363 1.85666 12.0127 1.82106 11.2327C1.78258 10.3891 1.77445 10.1361 1.77445 8.00002C1.77445 5.86391 1.78258 5.61091 1.82106 4.76735C1.85666 3.98735 1.98699 3.56376 2.09655 3.28183C2.24164 2.90844 2.41503 2.64191 2.69496 2.36198C2.97489 2.08205 3.24142 1.90867 3.61484 1.76354C3.89674 1.65401 4.32033 1.52369 5.10029 1.48809C5.94389 1.4496 6.19689 1.44147 8.33299 1.44147ZM8.33299 0C6.16031 0 5.8879 0.00920926 5.03462 0.0481422C4.18308 0.0870116 3.60156 0.222229 3.09267 0.420006C2.5666 0.624451 2.12046 0.897997 1.67572 1.34274C1.23097 1.78748 0.957427 2.23363 0.752982 2.7597C0.555205 3.26859 0.419988 3.8501 0.381118 4.70164C0.342185 5.5549 0.333008 5.82733 0.333008 8.00002C0.333008 10.1727 0.342185 10.4451 0.381118 11.2984C0.419988 12.1499 0.555205 12.7314 0.752982 13.2403C0.957427 13.7664 1.23097 14.2125 1.67572 14.6573C2.12046 15.102 2.5666 15.3756 3.09267 15.58C3.60156 15.7778 4.18308 15.913 5.03462 15.9519C5.8879 15.9908 6.16031 16 8.33299 16C10.5057 16 10.7781 15.9908 11.6314 15.9519C12.4829 15.913 13.0644 15.7778 13.5733 15.58C14.0994 15.3756 14.5455 15.102 14.9903 14.6573C15.435 14.2125 15.7086 13.7664 15.913 13.2403C16.1108 12.7314 16.246 12.1499 16.2849 11.2984C16.3238 10.4451 16.333 10.1727 16.333 8.00002C16.333 5.82733 16.3238 5.5549 16.2849 4.70164C16.246 3.8501 16.1108 3.26859 15.913 2.7597C15.7086 2.23363 15.435 1.78748 14.9903 1.34274C14.5455 0.897997 14.0994 0.624451 13.5733 0.420006C13.0644 0.222229 12.4829 0.0870116 11.6314 0.0481422C10.7781 0.00920926 10.5057 0 8.33299 0ZM8.33299 3.89189C6.06415 3.89189 4.22487 5.73117 4.22487 8.00002C4.22487 10.2689 6.06415 12.1081 8.33299 12.1081C10.6018 12.1081 12.4411 10.2689 12.4411 8.00002C12.4411 5.73117 10.6018 3.89189 8.33299 3.89189ZM8.33299 10.6667C6.86024 10.6667 5.66631 9.47277 5.66631 8.00002C5.66631 6.52727 6.86024 5.33333 8.33299 5.33333C9.80574 5.33333 10.9997 6.52727 10.9997 8.00002C10.9997 9.47277 9.80574 10.6667 8.33299 10.6667ZM13.5634 3.72959C13.5634 4.25979 13.1336 4.68961 12.6034 4.68961C12.0732 4.68961 11.6434 4.25979 11.6434 3.72959C11.6434 3.19939 12.0732 2.7696 12.6034 2.7696C13.1336 2.7696 13.5634 3.19939 13.5634 3.72959Z" fill="#0A0A08"/>
</svg>
