<svg width="17" height="16" viewBox="0 0 17 16" fill="none" xmlns="http://www.w3.org/2000/svg">
<path d="M15.3835 4.00548C14.4698 4.00548 13.6249 3.70194 12.9489 3.19186C12.1729 2.60669 11.6127 1.74614 11.4156 0.757285C11.3655 0.513202 11.3405 0.25973 11.3374 0H8.72441V7.13788L8.72128 11.0464C8.72128 12.0915 8.0391 12.9771 7.09718 13.29C6.82181 13.3808 6.52765 13.4246 6.22098 13.4058C5.8267 13.3839 5.46057 13.265 5.13825 13.0741C4.45607 12.6673 3.99607 11.9288 3.98355 11.0808C3.96477 9.76022 5.03186 8.68062 6.35241 8.68062C6.61214 8.68062 6.86249 8.72443 7.09718 8.79953V6.84999V6.15216C6.84997 6.11461 6.59963 6.09583 6.34303 6.09583C4.8973 6.09583 3.54545 6.69666 2.5785 7.77939C1.84938 8.59613 1.41128 9.64131 1.34244 10.7366C1.25482 12.1729 1.78054 13.5404 2.80068 14.548C2.95089 14.6951 3.10735 14.8328 3.2732 14.9611C4.14627 15.6339 5.21649 16 6.34303 16C6.5965 16 6.84997 15.9812 7.09718 15.9437C8.14862 15.7872 9.1187 15.3053 9.88537 14.548C10.8273 13.6186 11.3467 12.3826 11.353 11.0683L11.3405 5.22902C11.788 5.57637 12.2793 5.86114 12.8081 6.08332C13.628 6.43067 14.4979 6.60278 15.3898 6.60278V4.70643V4.00235C15.3929 4.00548 15.3835 4.00548 15.3835 4.00548Z" fill="black"/>
</svg>
