<svg xmlns="http://www.w3.org/2000/svg" width="24" height="25" viewBox="0 0 24 25" fill="none">
  <rect width="24" height="24" transform="translate(0 0.15625)" fill="white"/>
  <path fill-rule="evenodd" clip-rule="evenodd" d="M10.3661 3.15625C10.269 3.15625 10.1759 3.19482 10.1072 3.26348C10.0386 3.33214 10 3.42525 10 3.52235V5.15625H14V3.52235C14 3.42525 13.9614 3.33214 13.8928 3.26348C13.8241 3.19482 13.731 3.15625 13.6339 3.15625H10.3661ZM8 3.52235V5.15625H4V7.15625H20V5.15625H16V3.52235C16 2.89482 15.7507 2.29299 15.307 1.84926C14.8633 1.40553 14.2614 1.15625 13.6339 1.15625H10.3661C9.73857 1.15625 9.13674 1.40553 8.69302 1.84926C8.24929 2.29299 8 2.89482 8 3.52235ZM9 9.15625V17.1562H11V9.15625H9ZM13 17.1562V9.15625H15V17.1562H13ZM7 18.9851V9.15625H5V18.9851C5 19.8262 5.3341 20.6328 5.92879 21.2275C6.52349 21.8222 7.33007 22.1562 8.1711 22.1562H15.8289C16.6699 22.1562 17.4765 21.8222 18.0712 21.2275C18.6659 20.6328 19 19.8262 19 18.9851V9.15625H17V18.9851C17 19.2957 16.8766 19.5936 16.657 19.8132C16.4374 20.0329 16.1395 20.1562 15.8289 20.1562H8.1711C7.8605 20.1562 7.56263 20.0329 7.34301 19.8132C7.12338 19.5936 7 19.2957 7 18.9851Z" fill="black"/>
</svg>