<svg width="18" height="20" viewBox="0 0 18 20" fill="none" xmlns="http://www.w3.org/2000/svg">
<path d="M14 19.75H4C1.582 19.75 0.25 18.418 0.25 16V4C0.25 1.582 1.582 0.25 4 0.25H14C16.418 0.25 17.75 1.582 17.75 4V16C17.75 18.418 16.418 19.75 14 19.75ZM4 1.75C2.423 1.75 1.75 2.423 1.75 4V16C1.75 17.577 2.423 18.25 4 18.25H14C15.577 18.25 16.25 17.577 16.25 16V4C16.25 2.423 15.577 1.75 14 1.75H4ZM13.75 10C13.75 9.586 13.414 9.25 13 9.25H5C4.586 9.25 4.25 9.586 4.25 10C4.25 10.414 4.586 10.75 5 10.75H13C13.414 10.75 13.75 10.414 13.75 10ZM10.75 14C10.75 13.586 10.414 13.25 10 13.25H5C4.586 13.25 4.25 13.586 4.25 14C4.25 14.414 4.586 14.75 5 14.75H10C10.414 14.75 10.75 14.414 10.75 14ZM13.75 6C13.75 5.586 13.414 5.25 13 5.25H5C4.586 5.25 4.25 5.586 4.25 6C4.25 6.414 4.586 6.75 5 6.75H13C13.414 6.75 13.75 6.414 13.75 6Z" fill="#0A0A0A"/>
</svg>
